# xmcd
#
# Track frame offsets:
#	182
#	14657
#	28770
#	41432
#	54665
#	69177
#	84907
#	100325
#	115505
#	131657
#	145775
#	161800
#	175810
#	189070
#	206130
#	220632
#	238632
#	255220
#
# Disc length: 3613 seconds
#
# Revision: 3
# Processed by: cddbd v1.5.2PL0 Copyright (c) Steve Scherf et al.
# Submitted via: EasyCDDAExtractor 11.0.0.1
#
DISCID=eb0e1b12
DTITLE=Various Artist - 30 Jahre Truck Stop
DYEAR=2003
DGENRE=Country
TTITLE0=Lucius - Von Arizona bis Old Texas Town
TTITLE1=Gunter Gabriel and Cisco - Die Frau mit dem Gurt
TTITLE2=Lucius - 300 Jahre (wenn man uns addiert)
TTITLE3=Stefan Raab and Cisco - Der Wilde, wilde Westen
TTITLE4=Lucius - Mississippi Lady
TTITLE5=Cisco - Wir sind die Counrty-Superstar
TTITLE6=Bellamy brothers and Lucius - Hello, Lady Harley
TTITLE7=Cisco - Das Leben ist viel zu kurz
TTITLE8=Tom Astor and Cisco - Ich möcht so gern Dave Dudley hör'n
TTITLE9=Cisco - Das gibt es nur in Mashville
TTITLE10=Linda Feller and Lucius - Hey, kleiner Cowboy
TTITLE11=Cisco - Keep on Truckin'
TTITLE12=Marcus (Klostertaler) and Lucius - Take it easy, altes Haus
TTITLE13=Cisco - Wie Schön, das du das bist
TTITLE14=Höhner and Lucius - Angeln entspannt
TTITLE15=Cisco and Lucius - Ein Herz und eine Seele
TTITLE16=Lucius - Jenny
TTITLE17=Peter (Schürzenjäger) and Lucius - Freunde bleiben
EXTD=
EXTT0=
EXTT1=
EXTT2=
EXTT3=
EXTT4=
EXTT5=
EXTT6=
EXTT7=
EXTT8=
EXTT9=
EXTT10=
EXTT11=
EXTT12=
EXTT13=
EXTT14=
EXTT15=
EXTT16=
EXTT17=
PLAYORDER=
